# xmcd
#
# Track frame offsets:
#	150
#	24486
#	32653
#	60301
#	73933
#	104604
#	135324
#	165803
#	177875
#	194729
#	218717
#	248776
#	265815
#
# Disc length: 3984 seconds
#
# Revision: 1
# Processed by: cddbd v1.5.2PL0 Copyright (c) Steve Scherf et al.
# Submitted via: audiograbber 1.83.01
#
DISCID=b10f8e0d
DTITLE=Grateful Dead - 72-07-21 Paramount Northwest Theatre, Seattle WA
DYEAR=1900
DGENRE=
TTITLE0=Sugaree
TTITLE1=Tuning
TTITLE2=Black Throated Wind
TTITLE3=Tuning
TTITLE4=Cumberland Blues
TTITLE5=Me and Bobby McGee
TTITLE6=Loser
TTITLE7=Tuning
TTITLE8=Mexicali Blues
TTITLE9=China Cat Sunflower
TTITLE10=I Know You Rider
TTITLE11=Beat It On Down The Line
TTITLE12=Stella Blue
EXTD=
EXTT0=
EXTT1=
EXTT2=
EXTT3=
EXTT4=
EXTT5=
EXTT6=
EXTT7=
EXTT8=
EXTT9=
EXTT10=
EXTT11=
EXTT12=
PLAYORDER=
